<svg width="615" height="726" viewBox="0 0 615 726" fill="none" xmlns="http://www.w3.org/2000/svg">
<path d="M352.989 725.893C158.359 725.893 0 563.072 0 362.958C0 162.844 158.359 0 352.989 0C547.619 0 705.978 162.82 705.978 362.934H549.088C549.088 251.749 461.104 161.31 352.989 161.31C244.874 161.31 156.889 251.773 156.889 362.934C156.889 474.096 244.874 564.559 352.989 564.559V725.893Z" fill="#F8D65D"/>
<path d="M607.939 725.889C662.096 725.889 706 680.749 706 625.065C706 569.381 662.096 524.24 607.939 524.24C553.781 524.24 509.877 569.381 509.877 625.065C509.877 680.749 553.781 725.889 607.939 725.889Z" fill="white"/>
</svg>
