<?xml version="1.0" standalone="no"?>
<!DOCTYPE svg PUBLIC "-//W3C//DTD SVG 20010904//EN"
 "http://www.w3.org/TR/2001/REC-SVG-20010904/DTD/svg10.dtd">
<svg version="1.0" xmlns="http://www.w3.org/2000/svg"
 width="200.000000pt" height="200.000000pt" viewBox="0 0 200.000000 200.000000"
 preserveAspectRatio="xMidYMid meet">
<metadata>
Created by potrace 1.14, written by Peter Selinger 2001-2017
</metadata>
<g transform="translate(0.000000,200.000000) scale(0.100000,-0.100000)"
fill="#000000" stroke="none">
<path d="M827 1984 c-208 -37 -383 -129 -532 -279 -130 -129 -215 -277 -263
-454 -22 -84 -25 -116 -25 -251 0 -135 3 -167 25 -251 48 -177 133 -325 263
-454 392 -393 1018 -393 1410 0 130 129 215 277 263 454 22 84 25 116 25 251
0 135 -3 167 -25 251 -77 284 -273 524 -533 649 -187 89 -409 120 -608 84z
m622 -187 c-2 -2 -40 -28 -84 -57 -173 -116 -339 -264 -425 -380 -134 -182
-170 -339 -124 -549 5 -26 4 -33 -7 -29 -18 6 -47 102 -55 181 -19 193 113
436 338 624 137 114 335 240 352 223 5 -5 8 -11 5 -13z m-241 -594 c16 -30 42
-159 42 -206 0 -161 -113 -375 -283 -533 -116 -109 -386 -292 -408 -278 -14 8
-6 16 78 74 290 198 484 413 541 600 35 118 37 183 6 328 -7 35 9 45 24 15z
m-159 -128 c34 -17 55 -62 45 -98 -8 -34 -58 -77 -89 -77 -33 0 -85 46 -85 75
0 37 19 40 31 6 21 -61 99 -45 99 20 0 34 -38 64 -69 54 -25 -8 -36 11 -14 24
25 14 49 13 82 -4z"/>
</g>
</svg>
